<?xml version="1.0" encoding="UTF-8"?>
<svg version="1.1" xmlns="http://www.w3.org/2000/svg" width="512" height="512">
<path d="M0 0 C2.04785491 0.0056532 4.09570149 0.00846555 6.14356232 0.0110817 C26.41168109 0.04870019 46.40521452 0.54068787 66.51337433 3.31805801 C67.81613312 3.48966446 69.11889191 3.6612709 70.46112823 3.83807755 C97.69217527 7.46031557 124.5732978 13.15726466 150.51337433 22.31805801 C151.83256866 22.78381241 151.83256866 22.78381241 153.17841339 23.25897598 C182.37971517 33.70924192 209.06947538 47.7066004 231.51337433 69.31805801 C232.30356964 70.0334877 233.09376495 70.74891739 233.90790558 71.48602676 C247.15645491 83.85288629 257.59849416 102.16681745 258.70476151 120.48760223 C258.78706284 124.28279927 258.80704048 128.07546289 258.80390167 131.87128067 C258.80989631 133.32608761 258.81670398 134.78089139 258.8242569 136.23569107 C258.84183291 140.16580923 258.84660882 144.09584015 258.84788847 148.02599382 C258.84931585 150.48906375 258.85359659 152.9521119 258.8588829 155.41517639 C258.87735819 164.03011594 258.885557 172.64499384 258.8839798 181.25995255 C258.88278035 189.25394293 258.90385039 197.24766248 258.93546712 205.24158442 C258.9617415 212.13367579 258.97234238 219.02567935 258.97106898 225.91782033 C258.97056244 230.021246 258.97607237 234.12443091 258.99742508 238.22780609 C259.01699588 242.09397558 259.01680559 245.95967938 259.00239182 249.8258667 C259.00032543 251.23218096 259.00487238 252.63852585 259.01711273 254.04478836 C259.21867809 278.83961087 248.4837344 298.4475876 231.38837433 315.88055801 C190.57916042 356.41229804 127.90789046 372.77913723 72.76337433 380.56805801 C71.70215363 380.71912003 70.64093292 380.87018204 69.54755402 381.02582169 C48.09144036 383.86729835 26.65439963 384.69681914 5.02674866 384.63611603 C2.97889375 384.63046283 0.93104717 384.62765048 -1.11681366 384.62503433 C-21.38493243 384.58741583 -41.37846586 384.09542815 -61.48662567 381.31805801 C-62.78938446 381.14645157 -64.09214325 380.97484512 -65.43437958 380.79803848 C-92.66542662 377.17580046 -119.54654914 371.47885137 -145.48662567 362.31805801 C-146.36608856 362.00755508 -147.24555145 361.69705215 -148.15166473 361.37714005 C-177.35296652 350.9268741 -204.04272673 336.92951563 -226.48662567 315.31805801 C-227.27682098 314.60262833 -228.0670163 313.88719864 -228.88115692 313.15008926 C-242.12970625 300.78322973 -252.5717455 282.46929858 -253.67801285 264.14851379 C-253.76031419 260.35331676 -253.78029182 256.56065314 -253.77715302 252.76483536 C-253.78314765 251.31002842 -253.78995532 249.85522464 -253.79750824 248.40042496 C-253.81508425 244.47030679 -253.81986016 240.54027588 -253.82113981 236.6101222 C-253.8225672 234.14705228 -253.82684794 231.68400412 -253.83213425 229.22093964 C-253.85060953 220.60600009 -253.85880835 211.99112219 -253.85723114 203.37616348 C-253.85603169 195.3821731 -253.87710173 187.38845354 -253.90871847 179.39453161 C-253.93499285 172.50244023 -253.94559373 165.61043668 -253.94432032 158.71829569 C-253.94381379 154.61487003 -253.94932371 150.51168512 -253.97067642 146.40830994 C-253.99024723 142.54214044 -253.99005694 138.67643665 -253.97564316 134.81024933 C-253.97357677 133.40393507 -253.97812373 131.99759018 -253.99036407 130.59132767 C-254.19192943 105.79650515 -243.45698574 86.18852843 -226.36162567 68.75555801 C-185.55241177 28.22381799 -122.88114181 11.85697879 -67.73662567 4.06805801 C-66.67540497 3.916996 -65.61418427 3.76593399 -64.52080536 3.61029434 C-43.0646917 0.76881768 -21.62765098 -0.06070311 0 0 Z " fill="#455055" transform="translate(253.48662567138672,63.681941986083984)"/>
<path d="M0 0 C7.23727669 6.10686359 7.23727669 6.10686359 10.46875 9.5078125 C37.90379338 37.3247468 79.93868032 52.42859222 117.04589844 61.28955078 C120.09166533 62.02204513 123.12742469 62.78920432 126.1640625 63.55859375 C141.36754808 67.33079919 156.57541653 69.79991314 172.13574219 71.56201172 C174.66638909 71.84884395 177.19579221 72.14692595 179.72363281 72.45751953 C240.77923044 79.88320032 307.52634673 76.44071303 366.4375 57.6875 C367.68394287 57.29433594 368.93038574 56.90117187 370.21459961 56.49609375 C403.07521844 46.03030627 434.86884116 32.69504141 460.18359375 8.640625 C462.31260164 6.64449555 464.45752331 4.72708332 466.67602539 2.83496094 C467.61243614 2.03538971 467.61243614 2.03538971 468.56776428 1.21966553 C469.04040207 0.8171759 469.51303986 0.41468628 470 0 C470.09311726 10.46687588 470.16397523 20.93365148 470.20724869 31.40085888 C470.22802898 36.26242504 470.25616966 41.12370558 470.30175781 45.98510742 C470.34555947 50.68599017 470.36920878 55.38660004 470.37950897 60.08767128 C470.38683927 61.87163901 470.40115171 63.65559361 470.42292023 65.43944359 C470.65851203 85.56524571 465.57666149 100.85108037 452 116 C451.18660156 116.90878906 450.37320312 117.81757813 449.53515625 118.75390625 C438.08377367 130.85965355 423.68468213 139.35410884 409 147 C408.03320312 147.50394287 408.03320312 147.50394287 407.046875 148.01806641 C389.39634099 157.06837772 370.34414801 163.57127419 351.14404297 168.44384766 C349.01393802 168.99638456 346.90056488 169.5930775 344.78515625 170.19921875 C333.33742115 173.38131386 321.71998778 175.32785561 310 177.1875 C309.21032837 177.31405975 308.42065674 177.44061951 307.60705566 177.5710144 C302.08022061 178.44991857 296.54545961 179.24813925 291 180 C290.27425781 180.10278259 289.54851562 180.20556519 288.80078125 180.3114624 C272.55487667 182.54682377 256.19067717 182.30743052 239.828125 182.26074219 C235.80770683 182.24934829 231.78755335 182.25612558 227.7671442 182.26761341 C211.413164 182.30743001 195.23487468 182.2084222 179 180 C177.59020545 179.82504954 176.18021098 179.6517024 174.77001953 179.47998047 C170.69343179 178.97288356 166.62720167 178.40694134 162.5625 177.8125 C161.84753357 177.70839813 161.13256714 177.60429626 160.39593506 177.49703979 C145.35095027 175.27523369 130.68679685 171.96557237 116 168 C115.0812207 167.75668945 114.16244141 167.51337891 113.21582031 167.26269531 C87.9202875 160.48215363 61.45230194 150.26224841 40 135 C38.98035156 134.27554688 37.96070313 133.55109375 36.91015625 132.8046875 C19.94000053 120.41192439 4.04994073 104.44225265 0 83 C-0.24879199 80.15209619 -0.25454188 77.32994027 -0.22705078 74.47265625 C-0.22734283 73.66194168 -0.22763489 72.85122711 -0.22793579 72.01594543 C-0.22655431 69.36468399 -0.21104944 66.7137117 -0.1953125 64.0625 C-0.19157816 62.21305495 -0.18873318 60.3636079 -0.18673706 58.51416016 C-0.17913377 53.6677292 -0.15951392 48.82141984 -0.1373291 43.97503662 C-0.11679922 39.02113489 -0.10772012 34.06721334 -0.09765625 29.11328125 C-0.07626469 19.40880101 -0.04216898 9.70441065 0 0 Z " fill="#E7E8E8" transform="translate(21,244)"/>
<path d="M0 0 C2.25322011 2.2703679 3.19698195 3.61240288 4.5625 6.375 C5.3854414 7.84925966 6.21399487 9.32039481 7.046875 10.7890625 C7.50384766 11.6130957 7.96082031 12.43712891 8.43164062 13.28613281 C11.15956915 18.00650228 14.19348914 22.52727763 17.20248413 27.07177734 C19.06195517 29.88309429 20.90686644 32.70394494 22.75390625 35.5234375 C23.47336426 36.62010742 24.19282227 37.71677734 24.93408203 38.84667969 C27.88377576 43.34895388 30.81876628 47.86069267 33.75 52.375 C34.27053955 53.17647461 34.7910791 53.97794922 35.32739258 54.80371094 C36.3648522 56.40129829 37.40220668 57.99895392 38.43945312 59.59667969 C41.12473048 63.73214125 43.81251919 67.86597019 46.5 72 C47.58334477 73.66665923 48.66667812 75.33332589 49.75 77 C50.554375 78.2375 50.554375 78.2375 51.375 79.5 C70.33333333 108.66666667 89.29166667 137.83333333 108.25 167 C108.78729736 167.8264502 109.32459473 168.65290039 109.87817383 169.50439453 C110.9515239 171.15602548 112.02428675 172.80803821 113.09643555 174.46044922 C115.95258676 178.86061881 118.82132567 183.25195778 121.70703125 187.6328125 C122.3103125 188.55191406 122.91359375 189.47101563 123.53515625 190.41796875 C124.69942376 192.19123773 125.86726438 193.96216706 127.0390625 195.73046875 C127.55855469 196.52324219 128.07804687 197.31601562 128.61328125 198.1328125 C129.07516846 198.83293457 129.53705566 199.53305664 130.01293945 200.25439453 C131 202 131 202 131 204 C47.97353075 219.29564137 -58.77365874 209.5195263 -130.5625 162.875 C-135.91493719 159.16258535 -141.00885846 155.18265911 -146 151 C-146.74894531 150.39800781 -147.49789062 149.79601562 -148.26953125 149.17578125 C-160.37132413 139.06622748 -170.48880595 124.82052254 -173 109 C-174.39628441 91.48297742 -168.43641312 76.99739688 -157.25 63.75 C-152.0415926 57.78914934 -146.37590096 52.70602214 -140 48 C-139.236875 47.4225 -138.47375 46.845 -137.6875 46.25 C-104.80601033 22.25539943 -64.51761426 10.12422797 -25 2.5625 C-24.32113739 2.43058258 -23.64227478 2.29866516 -22.94284058 2.16275024 C-5.20216625 -1.24957136 -5.20216625 -1.24957136 0 0 Z " fill="#F3F3F3" transform="translate(194,90)"/>
<path d="M0 0 C1.31069962 -0.00960754 2.62139923 -0.01921509 3.97181702 -0.02911377 C5.4036542 -0.03397258 6.83549345 -0.03824871 8.26733398 -0.04199219 C9.36645268 -0.04623325 9.36645268 -0.04623325 10.4877758 -0.05056 C14.39094269 -0.06556023 18.29407277 -0.07477549 22.19726562 -0.07910156 C25.36698282 -0.08342882 28.53641896 -0.09709059 31.70605469 -0.12011719 C57.20202184 -0.3014554 82.07116299 1.08063428 107.21069336 5.73120117 C109.24713671 6.10716379 111.28611829 6.46603499 113.32592773 6.82324219 C122.81709743 8.51528339 132.12505568 10.72697266 141.45092773 13.16113281 C142.28962402 13.37294189 143.12832031 13.58475098 143.99243164 13.80297852 C184.44999177 24.03848475 230.73522637 42.47173736 254.50170898 78.86816406 C261.9444147 91.44171301 263.26200158 104.00436494 260.93920898 118.31347656 C260.28129564 120.72075486 259.47596425 122.88786634 258.45092773 125.16113281 C258.11061523 125.97324219 257.77030273 126.78535156 257.41967773 127.62207031 C243.26720835 158.70012808 206.48448775 176.99563094 176.14526367 188.38208008 C166.03468085 192.0724253 155.84954624 195.38650143 145.45092773 198.16113281 C144.45577148 198.42732422 143.46061523 198.69351563 142.43530273 198.96777344 C139.15224879 199.83762565 135.86523537 200.69025507 132.57592773 201.53613281 C131.52228027 201.81150879 130.46863281 202.08688477 129.38305664 202.37060547 C128.39740723 202.61858887 127.41175781 202.86657227 126.39624023 203.12207031 C125.51468262 203.34685059 124.633125 203.57163086 123.72485352 203.80322266 C121.45092773 204.16113281 121.45092773 204.16113281 118.45092773 203.16113281 C116.98802212 201.06419833 115.68117828 198.98577075 114.38842773 196.78613281 C109.63102698 188.9257597 104.57306037 181.28569642 99.45092773 173.66113281 C94.27542799 165.94400854 89.1488311 158.2127057 84.28027344 150.296875 C80.34650651 143.92784 76.24256754 137.67124267 72.13842773 131.41113281 C71.7701889 130.84939362 71.40195007 130.28765442 71.02255249 129.70889282 C69.18777124 126.91044801 67.35240102 124.11239031 65.5168457 121.31445312 C62.56715197 116.81217893 59.63216145 112.30044014 56.70092773 107.78613281 C56.18038818 106.9846582 55.65984863 106.18318359 55.12353516 105.35742188 C54.08607554 103.75983452 53.04872105 102.16217889 52.01147461 100.56445312 C49.32619725 96.42899157 46.63840854 92.29516262 43.95092773 88.16113281 C42.86758297 86.49447358 41.78424962 84.82780692 40.70092773 83.16113281 C40.16467773 82.33613281 39.62842773 81.51113281 39.07592773 80.66113281 C21.20092773 53.16113281 21.20092773 53.16113281 19.57519531 50.65991211 C18.49441785 48.99724004 17.41352636 47.33464209 16.33251953 45.67211914 C13.58413015 41.44494301 10.8378804 37.21640231 8.09545898 32.98535156 C6.98485286 31.27306595 5.87417656 29.56082586 4.76342773 27.84863281 C4.22886963 27.02379395 3.69431152 26.19895508 3.14355469 25.34912109 C0.59567306 21.42623567 -1.97061284 17.5184329 -4.58813477 13.64160156 C-5.29256714 12.59709839 -5.29256714 12.59709839 -6.01123047 11.53149414 C-6.88830765 10.23546235 -7.7694342 8.94215838 -8.65527344 7.65209961 C-11.54907227 3.37972296 -11.54907227 3.37972296 -11.54907227 1.16113281 C-7.6459541 0.24647881 -4.00485651 0.02382013 0 0 Z " fill="#F2F2F2" transform="translate(228.549072265625,85.8388671875)"/>
<path d="M0 0 C0.33 0 0.66 0 1 0 C1.09311726 10.46687588 1.16397523 20.93365148 1.20724869 31.40085888 C1.22802898 36.26242504 1.25616966 41.12370558 1.30175781 45.98510742 C1.34555947 50.68599017 1.36920878 55.38660004 1.37950897 60.08767128 C1.38683927 61.87163901 1.40115171 63.65559361 1.42292023 65.43944359 C1.65851203 85.56524571 -3.42333851 100.85108037 -17 116 C-17.81339844 116.90878906 -18.62679688 117.81757813 -19.46484375 118.75390625 C-30.91622633 130.85965355 -45.31531787 139.35410884 -60 147 C-60.96679688 147.50394287 -60.96679688 147.50394287 -61.953125 148.01806641 C-79.60365901 157.06837772 -98.65585199 163.57127419 -117.85595703 168.44384766 C-119.98606198 168.99638456 -122.09943512 169.5930775 -124.21484375 170.19921875 C-135.66257885 173.38131386 -147.28001222 175.32785561 -159 177.1875 C-159.78967163 177.31405975 -160.57934326 177.44061951 -161.39294434 177.5710144 C-166.91977939 178.44991857 -172.45454039 179.24813925 -178 180 C-178.72574219 180.10278259 -179.45148438 180.20556519 -180.19921875 180.3114624 C-196.44512333 182.54682377 -212.80932283 182.30743052 -229.171875 182.26074219 C-233.19229317 182.24934829 -237.21244665 182.25612558 -241.2328558 182.26761341 C-257.586836 182.30743001 -273.76512532 182.2084222 -290 180 C-291.40979455 179.82504954 -292.81978902 179.6517024 -294.22998047 179.47998047 C-298.30656821 178.97288356 -302.37279833 178.40694134 -306.4375 177.8125 C-307.15246643 177.70839813 -307.86743286 177.60429626 -308.60406494 177.49703979 C-323.64904973 175.27523369 -338.31320315 171.96557237 -353 168 C-353.9187793 167.75668945 -354.83755859 167.51337891 -355.78417969 167.26269531 C-386.6530781 158.98819664 -415.68450239 145.48365523 -441 126 C-440.01 125.505 -440.01 125.505 -439 125 C-436.37835744 126.11578559 -433.85965728 127.29476985 -431.3125 128.5625 C-429.74485556 129.31664813 -428.17582048 130.06791179 -426.60546875 130.81640625 C-425.82091309 131.19039551 -425.03635742 131.56438477 -424.22802734 131.94970703 C-394.08037287 146.16132324 -359.83922788 152.61001678 -327 157 C-325.9059082 157.15098145 -324.81181641 157.30196289 -323.68457031 157.45751953 C-287.22865662 162.27294159 -248.52342725 162.19150371 -212 158 C-210.94264648 157.8870459 -209.88529297 157.7740918 -208.79589844 157.65771484 C-170.85854532 153.46924266 -131.28683559 144.06466989 -97 127 C-96.21592773 126.61344238 -95.43185547 126.22688477 -94.62402344 125.82861328 C-84.16865186 120.62979834 -74.3309035 115.05751068 -65 108 C-64.04738281 107.28199219 -63.09476562 106.56398438 -62.11328125 105.82421875 C-46.86883666 93.85403423 -35.55892403 79.36388093 -32 60 C-31.75305731 55.13044669 -32.18442999 50.26842142 -32.50134277 45.40997314 C-33.3967831 29.76893778 -33.3967831 29.76893778 -30.83691406 24.69433594 C-27.79568745 21.34369928 -24.03101534 19.67214739 -19.91601562 17.94433594 C-16.5994432 16.30971538 -14.12680045 13.8103843 -11.5 11.25 C-11.0062085 10.7856958 -10.51241699 10.3213916 -10.00366211 9.84301758 C-7.39123991 7.38140643 -4.8384366 4.862436 -2.3125 2.3125 C-1.1678125 1.1678125 -1.1678125 1.1678125 0 0 Z " fill="#D0D0D0" transform="translate(490,244)"/>
<path d="M0 0 C7.77844128 0.52735195 14.60821204 2.60196646 22 5 C23.99988269 5.58373539 25.99988397 6.16706463 28 6.75 C66.21000898 18.61617785 107.47606638 37.5528037 127.66796875 74.01171875 C132.53412503 84.65728752 132.89941787 98.33009241 129.8125 109.625 C129.25313647 111.10109821 128.6488602 112.56099552 128 114 C127.6596875 114.81210938 127.319375 115.62421875 126.96875 116.4609375 C112.81628062 147.53899527 76.03356002 165.83449813 45.69433594 177.22094727 C35.58375311 180.91129249 25.39861851 184.22536862 15 187 C14.00484375 187.26619141 13.0096875 187.53238281 11.984375 187.80664062 C8.70132106 188.67649284 5.41430764 189.52912225 2.125 190.375 C1.07135254 190.65037598 0.01770508 190.92575195 -1.06787109 191.20947266 C-2.54634521 191.58144775 -2.54634521 191.58144775 -4.0546875 191.9609375 C-4.93624512 192.18571777 -5.81780273 192.41049805 -6.72607422 192.64208984 C-9 193 -9 193 -12 192 C-13.24267578 190.44946289 -13.24267578 190.44946289 -14.4453125 188.47265625 C-15.10080078 187.40821289 -15.10080078 187.40821289 -15.76953125 186.32226562 C-16.21683594 185.57654297 -16.66414063 184.83082031 -17.125 184.0625 C-17.80755859 182.9497168 -17.80755859 182.9497168 -18.50390625 181.81445312 C-21.74387755 176.5122449 -21.74387755 176.5122449 -23 174 C-22.17242187 173.8040625 -21.34484375 173.608125 -20.4921875 173.40625 C8.73075371 166.08473557 38.02196042 153.84644986 61 134 C61.82886719 133.31550781 62.65773438 132.63101563 63.51171875 131.92578125 C75.13490746 122.01136148 86.19291854 107.69005651 88 92 C89.26989522 74.75251403 84.35470324 59.62885704 73.1796875 46.4296875 C53.50591263 24.49942233 27.04529896 11.7425439 0 1 C0 0.67 0 0.34 0 0 Z " fill="#DADADA" transform="translate(359,97)"/>
<path d="M0 0 C1.67351849 2.28627482 3.1965135 4.53812938 4.6875 6.9375 C5.10322266 7.58396484 5.51894531 8.23042969 5.94726562 8.89648438 C9 13.72371459 9 13.72371459 9 16 C-53.10117039 27.44065549 -122.51037506 22.90085675 -183 5 C-183 4.67 -183 4.34 -183 4 C-178.57117226 3.79400801 -174.51378024 4.18287105 -170.13671875 4.90625 C-116.80261485 13.27485913 -57.98424107 12.37283541 -5.44140625 -0.58203125 C-3 -1 -3 -1 0 0 Z " fill="#D9DADA" transform="translate(316,278)"/>
<path d="M0 0 C4.82360189 -0.19294408 8.49646738 0.24252386 13 2 C13 2.66 13 3.32 13 4 C8.71 3.01 4.42 2.02 0 1 C0 0.67 0 0.34 0 0 Z " fill="#D1D2D3" transform="translate(133,282)"/>
</svg>
