<?xml version="1.0" encoding="iso-8859-1"?>
<!-- Uploaded to: SVG Repo, www.svgrepo.com, Generator: SVG Repo Mixer Tools -->
<svg version="1.1" id="Layer_1" xmlns="http://www.w3.org/2000/svg" xmlns:xlink="http://www.w3.org/1999/xlink" 
	 viewBox="0 0 512 512" xml:space="preserve">
<g>
	<polygon style="fill:#C9E3F7;" points="225.882,421.647 256,406.588 286.118,421.647 256,512 	"/>
	<rect x="225.882" y="30.118" style="fill:#C9E3F7;" width="60.235" height="90.353"/>
	<rect x="180.706" y="150.588" style="fill:#C9E3F7;" width="150.588" height="90.353"/>
</g>
<rect x="195.765" style="fill:#AED5F3;" width="120.471" height="60.235"/>
<g>
	<rect x="256" style="fill:#93C7EF;" width="60.235" height="60.235"/>
	<rect x="225.882" y="120.471" style="fill:#93C7EF;" width="60.235" height="90.353"/>
</g>
<rect x="150.588" y="90.353" style="fill:#AED5F3;" width="210.824" height="60.235"/>
<rect x="256" y="90.353" style="fill:#93C7EF;" width="105.412" height="60.235"/>
<path style="fill:#D80027;" d="M180.706,240.941v75.294c0,41.583,33.711,75.294,75.294,75.294s75.294-33.711,75.294-75.294v-75.294
	H180.706z"/>
<rect x="180.706" y="210.824" style="fill:#3C5D76;" width="150.588" height="60.235"/>
<rect x="256" y="210.824" style="fill:#1E2E3B;" width="75.294" height="60.235"/>
<polygon style="fill:#93C7EF;" points="301.178,376.471 210.822,376.471 225.882,421.647 286.118,421.647 "/>
</svg>